<?xml version="1.0" standalone="no"?>
<!DOCTYPE svg PUBLIC "-//W3C//DTD SVG 20010904//EN"
 "http://www.w3.org/TR/2001/REC-SVG-20010904/DTD/svg10.dtd">
<svg version="1.0" xmlns="http://www.w3.org/2000/svg"
 width="500.000000pt" height="500.000000pt" viewBox="0 0 500.000000 500.000000"
 preserveAspectRatio="xMidYMid meet">
<metadata>
Created by potrace 1.16, written by Peter Selinger 2001-2019
</metadata>
<g transform="translate(0.000000,500.000000) scale(0.100000,-0.100000)"
fill="#fff" stroke="none">
<path d="M2169 4850 c-213 -24 -486 -100 -701 -195 -396 -174 -797 -519 -1048
-901 -124 -188 -266 -524 -321 -758 -79 -338 -82 -722 -8 -1066 73 -336 254
-717 470 -985 94 -118 332 -351 440 -432 330 -248 763 -423 1149 -464 177 -19
522 -17 655 4 610 96 1123 389 1528 872 194 231 343 499 436 780 87 265 111
427 111 750 0 304 -25 476 -105 724 -123 381 -323 710 -599 987 -196 196 -388
330 -661 464 -214 105 -390 161 -648 206 -107 19 -575 28 -698 14z m651 -164
c154 -20 361 -81 541 -161 462 -203 896 -610 1115 -1047 71 -142 94 -201 84
-217 -11 -18 -354 -111 -366 -99 -3 4 -17 60 -30 126 -13 65 -33 141 -44 168
-46 107 -127 169 -280 214 -105 31 -303 25 -433 -14 -171 -51 -323 -150 -412
-268 -67 -89 -85 -137 -95 -253 -8 -105 -18 -143 -42 -163 -28 -23 -352 -108
-433 -114 l-40 -3 -3 207 c-2 162 0 209 11 220 10 10 266 73 463 113 12 3 25
13 29 22 11 28 19 529 9 536 -5 3 -58 -8 -119 -24 -60 -16 -184 -47 -275 -69
-91 -21 -325 -78 -520 -125 -195 -47 -476 -115 -625 -151 -529 -128 -761 -184
-847 -206 -48 -12 -90 -19 -94 -15 -4 3 13 48 38 99 188 389 608 812 1006
1012 170 86 434 174 617 207 128 22 584 26 745 5z m-994 -1573 c13 -30 19
-170 34 -807 11 -424 24 -922 29 -1106 23 -751 25 -930 10 -930 -48 1 -306 97
-314 118 -8 21 -24 400 -30 732 -11 582 -21 1734 -15 1850 l5 115 110 32 c145
42 152 42 171 -4z m1741 -53 c60 -36 72 -85 91 -382 5 -70 11 -130 15 -134 7
-7 456 104 747 186 113 31 221 60 241 64 l36 6 6 -47 c4 -27 11 -113 18 -191
11 -136 11 -145 -7 -162 -13 -13 -176 -61 -504 -148 -267 -72 -500 -133 -519
-137 l-33 -7 6 -82 c3 -44 8 -207 12 -361 5 -264 4 -282 -14 -314 -25 -46 -81
-75 -127 -67 -19 4 -50 21 -68 39 -29 27 -35 41 -41 92 -9 87 -24 517 -37
1085 l-12 494 48 43 c54 49 90 55 142 23z m-2583 -122 c10 -34 24 -605 36
-1435 6 -403 13 -739 16 -747 27 -71 -183 119 -320 289 -198 244 -324 494
-420 832 -58 202 -61 229 -61 575 0 174 3 319 7 323 5 6 622 162 703 178 11 2
23 5 26 6 4 0 10 -9 13 -21z m1870 -600 c3 -46 10 -218 16 -383 31 -901 29
-875 79 -973 68 -133 123 -176 265 -207 153 -34 331 -7 545 81 179 74 268 167
382 395 45 89 55 147 64 359 3 80 8 154 11 165 4 17 37 28 212 73 114 29 210
52 215 52 31 -1 -46 -238 -142 -435 -315 -646 -933 -1114 -1631 -1236 -117
-20 -455 -38 -434 -22 12 8 7 380 -16 1168 -6 198 -14 486 -17 640 l-6 280 24
11 c13 6 78 25 144 43 139 36 267 69 277 70 3 1 9 -36 12 -81z"/>
</g>
</svg>
